DataType=double
version=3
OpenSimVersion=4.5
endheader
time	ground_force_2_vx	ground_force_2_vy	ground_force_2_vz	ground_force_2_px	ground_force_2_py	ground_force_2_pz	ground_moment_2_mx	ground_moment_2_my	ground_moment_2_mz	ground_force_1_vx	ground_force_1_vy	ground_force_1_vz	ground_force_1_px	ground_force_1_py	ground_force_1_pz	ground_moment_1_mx	ground_moment_1_my	ground_moment_1_mz
2.235	-1.013139059576543	13.96813565282304	4.246408580873126	1.097986142566867	0.01038340430110678	0.5831283824845817	0.5300948627219189	0.478364641258647	-2.290802416114754	112.8617264336282	665.9816521377006	35.04862913461749	0.5396430616271575	0.01038340430110678	0.4009381701883085	-12.1171367799606	0.0898952001630392	25.6164816759483
2.24	-2.030035489437507	48.69039687332128	7.467954316662325	1.096075017241329	0.01038340430110678	0.582737662493353	1.364488759297643	0.7811587725240751	-5.978240017220953	114.7969506825103	651.2236221162174	34.00754631613984	0.5357832610670753	0.01038340430110678	0.4005492913712607	-12.08258263289633	0.2792251274868716	24.58878331452372
2.245	-3.529879672657406	84.97267373013631	10.56958637951527	1.093984376361298	0.01038340430110678	0.5823329484618557	2.214107674942863	1.077488767248133	-9.803670527766794	116.3861181931531	634.9558222682931	32.84260626556149	0.5318099743604836	0.01038340430110678	0.4001593855129008	-12.00992773270265	0.4679266746326554	23.50968163101614
2.25	-5.579982792575022	122.6110588622146	13.48992923693546	1.091705417278185	0.01038340430110678	0.581917457792442	3.06988019200599	1.362323553519511	-13.73781099570027	117.5240388739104	617.1202546000168	31.5516479464889	0.5277620470529686	0.01038340430110678	0.3997752114756818	-11.89300169252228	0.6531586354591067	22.3853650967522
2.255	-8.23339333008138	161.3542250220408	16.15045362924865	1.089230368770391	0.01038340430110678	0.5814942345042026	3.921308243768149	1.628613220428921	-17.74532799183368	118.1166279018151	597.6746937995815	30.1332799578588	0.523678037338319	0.01038340430110678	0.3994039785171273	-11.72600611961134	0.8315023915483229	21.22179125188166
2.26	-11.52273755418569	200.9017884131569	18.4553374134627	1.086553135915471	0.01038340430110678	0.5810660911098169	4.756567571194577	1.867116400321142	-21.78472485999088	118.0806154958532	576.6015569722175	28.58628883638639	0.5195956146054106	0.01038340430110678	0.3990532666772273	-11.50388199757977	0.9990171793128486	20.02469368269282
2.265	-15.45544055006955	240.9146067734516	20.29685143971801	1.083669711611205	0.01038340430110678	0.5806355848174685	5.563019329817497	2.066815598896925	-25.80955784632959	117.3430368081018	553.9160953580287	26.91044384038059	0.5155511499278254	0.01038340430110678	0.3987309185308027	-11.22272015173936	1.151420279107768	18.79970766792262
2.27	-20.01138458643092	281.0327807099912	21.56553357106228	1.080578391537363	0.01038340430110678	0.5802050211622501	6.328002847037197	2.2159193961406	-29.77054460276129	115.8428534348558	529.6727074122157	25.10858077876391	0.5115794646823721	0.01038340430110678	0.3984449032213006	-10.8801732528475	1.284376226000648	17.55257164902517
2.275	-25.1434484199255	320.8968310794066	22.16286112847843	1.077279827191559	0.01038340430110678	0.5797764774527396	7.039711210695202	2.303234498676512	-33.6180427974632	113.5346304785321	503.9687895029296	23.18878081977717	0.5077137055868528	0.01038340430110678	0.3982031553277131	-10.47582161115925	1.393870953632925	16.28935537434029
2.28	-30.78062356293408	360.1696108691961	22.0138227972991	1.073776949222533	0.01038340430110678	0.579351838241204	7.688022827041607	2.319595106926301	-37.30457166478323	110.3931924946789	476.9460486957923	21.16563519540479	0.5039853168428348	0.01038340430110678	0.3980133927628994	-10.01143410958618	1.476614484570734	15.01666427340667
2.285	-36.83288330057226	398.5558531773955	21.07689700289908	1.070074790730135	0.01038340430110678	0.5789328353878028	8.26517441690299	2.259041974081969	-40.78705982986286	106.4178283508187	448.7891168265508	19.06029948223233	0.5004240826427868	0.01038340430110678	0.3978829194777138	-9.491077151602788	1.530392210136826	13.74178126239176
2.29	-43.19687499170919	435.8151246241927	19.34941755115532	1.066180237559998	0.01038340430110678	0.5785210861492031	8.766144035200711	2.119518595327807	-44.02844853315207	101.634752753818	419.7208499521055	16.89962510242331	0.4970582159860198	0.01038340430110678	0.3978184201576552	-8.921055491216011	1.554288349019173	12.47273191340564
2.295	-49.76169845523135	471.7663037711712	16.8676277776274	1.062101729913449	0.01038340430110678	0.5781181239992712	9.188734720692494	1.903004903977827	-46.99848732421788	96.09712380905657	389.9938981291283	14.7147957719126	0.4939144725132911	0.01038340430110678	0.3978257552479761	-8.309684652681934	1.548739315088243	11.21828153911975
2.3	-56.41422442904561	506.284569819986	13.70215111645802	1.05784893682242	0.01038340430110678	0.5777254184671783	9.53344837847661	1.615160070315524	-49.67381725634223	89.88273120740762	359.8794299482295	12.53974489719	0.4910182709097247	0.01038340430110678	0.3979097654312886	-7.666883518814188	1.515422556403195	9.987881707526089
2.305	-63.04354723857251	539.2927335722723	9.950421405248271	1.053432422205664	0.01038340430110678	0.5773443820129944	9.803188386593519	1.264625505243501	-52.03752244957047	83.09017513764263	329.6552378752395	10.40946963190536	0.4883938043457421	0.01038340430110678	0.3980740950205346	-7.003580881786249	1.457024185322935	8.791572813822354
2.31	-69.54441478393478	570.7491598013506	5.727874274146966	1.048863318336109	0.01038340430110678	0.5769763636963378	10.00281272163098	0.8621672052943778	-54.07835337692642	75.83481186703739	299.5959895167207	8.358371796249552	0.4860641304302938	0.01038340430110678	0.3983210435505948	-6.331016635406533	1.376954275152721	7.639808266337314
2.315	-75.81967128371711	600.6345564484118	1.159380470458604	1.044153019634483	0.01038340430110678	0.5766226309765342	10.13863155331006	0.4198203621234937	-55.78982502514171	68.24572177747615	269.9680388864833	6.418934805729206	0.4840512302316307	0.01038340430110678	0.3986514541126703	-5.660129531826117	1.279090379138166	6.543124882797201
2.32	-81.78176536403811	628.9389379065119	-3.628287194455885	1.039312906804162	0.01038340430110678	0.5762843422788931	10.21793868774674	-0.04986574031186997	-57.16932765293291	60.46397833194981	241.0286549602501	4.620981701240627	0.4823760300486459	0.01038340430110678	0.3990646456713942	-5.001169698034605	1.167596205579212	5.511628720782006
2.325	-87.35351566522218	655.6497015826086	-8.512672822444653	1.034354108494488	0.01038340430110678	0.5759625138703706	10.24857310584391	-0.5344542169981481	-58.21732082650366	52.64118733333196	213.0259697736221	2.991308951466195	0.4810583827354314	0.01038340430110678	0.3995583947709977	-4.363483453067959	1.046797029434759	4.55438128091341
2.33	-92.46856605140937	680.7423582689712	-13.38046644492207	1.029287304993087	0.01038340430110678	0.5756579850518446	10.23847308268291	-1.022120995653156	-58.93666060750642	44.93687171638928	186.1960028211044	1.553181730508449	0.4801170084129286	0.01038340430110678	0.4001289697524424	-3.755345038505696	0.921055355314486	3.678824239374415
2.335	-97.0718848955118	704.175235608436	-18.1309703743299	1.024122575971592	0.01038340430110678	0.5753713856844208	10.19522338064946	-1.502034980732345	-59.33208793277072	37.51326973643811	160.7565705622837	0.3250988031057496	0.4795693972435756	0.01038340430110678	0.4007712179882869	-3.183783943284935	0.7945895017379107	2.890340423596278
2.34	-101.1203321287683	725.8882881202238	-22.67830850291085	1.01886929210769	0.01038340430110678	0.5751031096613677	10.12561842459073	-1.964625640587868	-59.40986618333707	30.52590823460978	136.9001830595088	-0.6817762809451544	0.4794316794863667	0.01038340430110678	0.4014787038513699	-2.654417629315768	0.67123717864939	2.191992705756995
2.345	-104.5831373281201	745.8053444868204	-26.95256499427936	1.013536048531794	0.01038340430110678	0.574853297192946	10.03528717301324	-2.401743839094181	-59.17753784765098	24.10941610658882	114.7874194736867	-1.466992558649046	0.4797184701811521	0.01038340430110678	0.4022438923472456	-2.171312089117469	0.554242869216599	1.584452910918325
